<?xml version="1.0" encoding="UTF-8" ?>
<svg version="1.1" width="120" height="75" xmlns="http://www.w3.org/2000/svg" shape-rendering="crispEdges">
<rect x="59" y="24" width="1" height="18" fill="#C1C1C1" />
<rect x="60" y="24" width="1" height="1" fill="#C1C1C1" opacity="0.250980" />
<rect x="58" y="25" width="1" height="10" fill="#C1C1C1" />
<rect x="60" y="25" width="1" height="10" fill="#C1C1C1" />
<rect x="57" y="26" width="1" height="9" fill="#C1C1C1" />
<rect x="61" y="26" width="1" height="9" fill="#C1C1C1" />
<rect x="56" y="27" width="1" height="15" fill="#C1C1C1" />
<rect x="62" y="27" width="1" height="15" fill="#C1C1C1" />
<rect x="55" y="28" width="1" height="14" fill="#C1C1C1" />
<rect x="63" y="28" width="1" height="14" fill="#C1C1C1" />
<rect x="54" y="29" width="1" height="13" fill="#C1C1C1" />
<rect x="64" y="29" width="1" height="13" fill="#C1C1C1" />
<rect x="53" y="30" width="1" height="12" fill="#C1C1C1" />
<rect x="65" y="30" width="1" height="12" fill="#C1C1C1" />
<rect x="52" y="31" width="1" height="4" fill="#C1C1C1" />
<rect x="66" y="31" width="1" height="4" fill="#C1C1C1" />
<rect x="51" y="32" width="1" height="3" fill="#C1C1C1" />
<rect x="67" y="32" width="1" height="3" fill="#C1C1C1" />
<rect x="50" y="33" width="1" height="2" fill="#C1C1C1" />
<rect x="68" y="33" width="1" height="2" fill="#C1C1C1" />
<rect x="49" y="34" width="1" height="1" fill="#C1C1C1" />
<rect x="69" y="34" width="1" height="1" fill="#C1C1C1" />
<rect x="57" y="36" width="2" height="1" fill="#C1C1C1" />
<rect x="60" y="36" width="2" height="1" fill="#C1C1C1" />
<rect x="57" y="39" width="2" height="3" fill="#C1C1C1" />
<rect x="60" y="39" width="2" height="3" fill="#C1C1C1" />
<rect x="44" y="44" width="1" height="5" fill="#FFB7D1" />
<rect x="47" y="44" width="1" height="5" fill="#FFB7D1" />
<rect x="53" y="44" width="2" height="1" fill="#FFB7D1" />
<rect x="60" y="44" width="2" height="1" fill="#FFB7D1" />
<rect x="63" y="44" width="2" height="1" fill="#FFB7D1" />
<rect x="69" y="44" width="4" height="1" fill="#FFB7D1" />
<rect x="52" y="45" width="1" height="3" fill="#FFB7D1" />
<rect x="55" y="45" width="1" height="3" fill="#FFB7D1" />
<rect x="60" y="45" width="1" height="4" fill="#FFB7D1" />
<rect x="62" y="45" width="1" height="2" fill="#FFB7D1" />
<rect x="64" y="45" width="1" height="4" fill="#FFB7D1" />
<rect x="69" y="45" width="1" height="4" fill="#FFB7D1" />
<rect x="45" y="46" width="2" height="1" fill="#FFB7D1" />
<rect x="70" y="46" width="3" height="1" fill="#FFB7D1" />
<rect x="53" y="48" width="2" height="1" fill="#FFB7D1" />
<rect x="70" y="48" width="3" height="1" fill="#FFB7D1" />
</svg>