<?xml version="1.0" encoding="UTF-8" ?>
<svg version="1.1" width="140" height="44" xmlns="http://www.w3.org/2000/svg" shape-rendering="crispEdges">
<rect x="3" y="3" width="2" height="1" fill="#FFCBE5" />
<rect x="135" y="3" width="2" height="1" fill="#FFCBE5" />
<rect x="2" y="4" width="1" height="3" fill="#FFCBE5" />
<rect x="3" y="4" width="2" height="3" fill="#FFF3F9" />
<rect x="5" y="4" width="3" height="1" fill="#FFCBE5" />
<rect x="132" y="4" width="3" height="1" fill="#FFCBE5" />
<rect x="135" y="4" width="2" height="3" fill="#FFF3F9" />
<rect x="137" y="4" width="1" height="3" fill="#FFCBE5" />
<rect x="5" y="5" width="3" height="2" fill="#FFF3F9" />
<rect x="8" y="5" width="2" height="1" fill="#FFCBE5" />
<rect x="61" y="5" width="5" height="1" fill="#FFCBE5" />
<rect x="74" y="5" width="5" height="1" fill="#FFCBE5" />
<rect x="130" y="5" width="2" height="1" fill="#FFCBE5" />
<rect x="132" y="5" width="3" height="2" fill="#FFF3F9" />
<rect x="8" y="6" width="2" height="3" fill="#FFF3F9" />
<rect x="10" y="6" width="2" height="1" fill="#FFCBE5" />
<rect x="60" y="6" width="1" height="3" fill="#FFCBE5" />
<rect x="61" y="6" width="5" height="3" fill="#FFF3F9" />
<rect x="66" y="6" width="2" height="1" fill="#FFCBE5" />
<rect x="72" y="6" width="2" height="1" fill="#FFCBE5" />
<rect x="74" y="6" width="5" height="3" fill="#FFF3F9" />
<rect x="79" y="6" width="1" height="3" fill="#FFCBE5" />
<rect x="128" y="6" width="2" height="1" fill="#FFCBE5" />
<rect x="130" y="6" width="2" height="3" fill="#FFF3F9" />
<rect x="3" y="7" width="3" height="1" fill="#FFCBE5" />
<rect x="6" y="7" width="2" height="3" fill="#FFF3F9" />
<rect x="10" y="7" width="2" height="3" fill="#FFF3F9" />
<rect x="12" y="7" width="1" height="1" fill="#FFCBE5" />
<rect x="66" y="7" width="2" height="2" fill="#FFF3F9" />
<rect x="68" y="7" width="4" height="1" fill="#FFCBE5" />
<rect x="72" y="7" width="2" height="2" fill="#FFF3F9" />
<rect x="127" y="7" width="1" height="1" fill="#FFCBE5" />
<rect x="128" y="7" width="2" height="3" fill="#FFF3F9" />
<rect x="132" y="7" width="2" height="3" fill="#FFF3F9" />
<rect x="134" y="7" width="3" height="1" fill="#FFCBE5" />
<rect x="2" y="8" width="1" height="2" fill="#FFCBE5" />
<rect x="3" y="8" width="3" height="2" fill="#FFF3F9" />
<rect x="12" y="8" width="1" height="4" fill="#FFF3F9" />
<rect x="13" y="8" width="1" height="4" fill="#FFCBE5" />
<rect x="68" y="8" width="1" height="4" fill="#FFCBE5" />
<rect x="69" y="8" width="2" height="3" fill="#FFF3F9" />
<rect x="71" y="8" width="1" height="4" fill="#FFCBE5" />
<rect x="126" y="8" width="1" height="4" fill="#FFCBE5" />
<rect x="127" y="8" width="1" height="4" fill="#FFF3F9" />
<rect x="134" y="8" width="3" height="2" fill="#FFF3F9" />
<rect x="137" y="8" width="1" height="2" fill="#FFCBE5" />
<rect x="8" y="9" width="2" height="1" fill="#FFCBE5" />
<rect x="61" y="9" width="1" height="1" fill="#FFCBE5" />
<rect x="62" y="9" width="4" height="4" fill="#FFF3F9" />
<rect x="66" y="9" width="2" height="1" fill="#FFCBE5" />
<rect x="72" y="9" width="2" height="1" fill="#FFCBE5" />
<rect x="74" y="9" width="4" height="4" fill="#FFF3F9" />
<rect x="78" y="9" width="1" height="1" fill="#FFCBE5" />
<rect x="130" y="9" width="2" height="1" fill="#FFCBE5" />
<rect x="3" y="10" width="3" height="1" fill="#FFCBE5" />
<rect x="6" y="10" width="1" height="2" fill="#FFF3F9" />
<rect x="7" y="10" width="1" height="3" fill="#FFCBE5" />
<rect x="8" y="10" width="2" height="3" fill="#FFF3F9" />
<rect x="10" y="10" width="1" height="1" fill="#FFCBE5" />
<rect x="11" y="10" width="1" height="3" fill="#FFF3F9" />
<rect x="14" y="10" width="4" height="1" fill="#FFCBE5" opacity="0.831373" />
<rect x="23" y="10" width="4" height="1" fill="#FFCBE5" opacity="0.831373" />
<rect x="32" y="10" width="4" height="1" fill="#FFCBE5" opacity="0.968627" />
<rect x="41" y="10" width="4" height="1" fill="#FFCBE5" opacity="0.968627" />
<rect x="50" y="10" width="4" height="1" fill="#FFCBE5" opacity="0.968627" />
<rect x="59" y="10" width="1" height="1" fill="#FFCBE5" opacity="0.968627" />
<rect x="60" y="10" width="1" height="3" fill="#FFCBE5" />
<rect x="61" y="10" width="1" height="3" fill="#FFF3F9" />
<rect x="66" y="10" width="2" height="2" fill="#FFF3F9" />
<rect x="72" y="10" width="2" height="2" fill="#FFF3F9" />
<rect x="78" y="10" width="1" height="3" fill="#FFF3F9" />
<rect x="79" y="10" width="1" height="3" fill="#FFCBE5" />
<rect x="80" y="10" width="1" height="1" fill="#FFCBE5" opacity="0.968627" />
<rect x="86" y="10" width="4" height="1" fill="#FFCBE5" opacity="0.968627" />
<rect x="95" y="10" width="4" height="1" fill="#FFCBE5" opacity="0.968627" />
<rect x="104" y="10" width="4" height="1" fill="#FFCBE5" opacity="0.968627" />
<rect x="113" y="10" width="4" height="1" fill="#FFCBE5" opacity="0.968627" />
<rect x="122" y="10" width="4" height="1" fill="#FFCBE5" opacity="0.831373" />
<rect x="128" y="10" width="1" height="3" fill="#FFF3F9" />
<rect x="129" y="10" width="1" height="1" fill="#FFCBE5" />
<rect x="130" y="10" width="2" height="3" fill="#FFF3F9" />
<rect x="132" y="10" width="1" height="3" fill="#FFCBE5" />
<rect x="133" y="10" width="1" height="2" fill="#FFF3F9" />
<rect x="134" y="10" width="3" height="1" fill="#FFCBE5" />
<rect x="3" y="11" width="1" height="1" fill="#FFCBE5" />
<rect x="4" y="11" width="2" height="1" fill="#FFF3F9" />
<rect x="10" y="11" width="1" height="2" fill="#FFF3F9" />
<rect x="14" y="11" width="4" height="28" fill="#FFFFFF" />
<rect x="18" y="11" width="2" height="1" fill="#FFCBE5" opacity="0.831373" />
<rect x="21" y="11" width="1" height="1" fill="#FFCBE5" opacity="0.831373" />
<rect x="22" y="11" width="1" height="1" fill="#FFD4E9" />
<rect x="23" y="11" width="4" height="15" fill="#FFFFFF" />
<rect x="27" y="11" width="2" height="1" fill="#FFD4E9" />
<rect x="30" y="11" width="1" height="1" fill="#FFCBE5" opacity="0.968627" />
<rect x="31" y="11" width="1" height="1" fill="#FFCDE6" />
<rect x="32" y="11" width="4" height="15" fill="#FFFFFF" />
<rect x="36" y="11" width="1" height="1" fill="#FFCDE6" />
<rect x="37" y="11" width="1" height="1" fill="#FFCBE5" opacity="0.968627" />
<rect x="39" y="11" width="2" height="1" fill="#FFCBE5" opacity="0.968627" />
<rect x="41" y="11" width="4" height="12" fill="#FFFFFF" />
<rect x="45" y="11" width="2" height="1" fill="#FFCBE5" opacity="0.968627" />
<rect x="48" y="11" width="2" height="1" fill="#FFCBE5" opacity="0.968627" />
<rect x="50" y="11" width="4" height="28" fill="#FFFFFF" />
<rect x="54" y="11" width="1" height="1" fill="#FFCDE6" />
<rect x="55" y="11" width="1" height="1" fill="#FFCBE5" opacity="0.968627" />
<rect x="57" y="11" width="1" height="1" fill="#FFCBE5" opacity="0.968627" />
<rect x="58" y="11" width="1" height="1" fill="#FFCDE6" />
<rect x="59" y="11" width="1" height="1" fill="#FFFFFF" />
<rect x="69" y="11" width="2" height="1" fill="#FFCBE5" />
<rect x="80" y="11" width="1" height="1" fill="#FFFFFF" />
<rect x="81" y="11" width="1" height="1" fill="#FFCDE6" />
<rect x="82" y="11" width="1" height="1" fill="#FFCBE5" opacity="0.968627" />
<rect x="84" y="11" width="2" height="1" fill="#FFCDE6" />
<rect x="86" y="11" width="4" height="28" fill="#FFFFFF" />
<rect x="90" y="11" width="1" height="1" fill="#FFCDE6" />
<rect x="91" y="11" width="1" height="1" fill="#FFCBE5" opacity="0.968627" />
<rect x="93" y="11" width="1" height="1" fill="#FFCBE5" opacity="0.968627" />
<rect x="94" y="11" width="1" height="1" fill="#FFCDE6" />
<rect x="95" y="11" width="4" height="12" fill="#FFFFFF" />
<rect x="99" y="11" width="1" height="1" fill="#FFCDE6" />
<rect x="100" y="11" width="1" height="1" fill="#FFCBE5" opacity="0.968627" />
<rect x="102" y="11" width="2" height="1" fill="#FFCBE5" opacity="0.968627" />
<rect x="104" y="11" width="4" height="15" fill="#FFFFFF" />
<rect x="108" y="11" width="2" height="1" fill="#FFCDE6" />
<rect x="111" y="11" width="2" height="1" fill="#FFCDE6" />
<rect x="113" y="11" width="4" height="15" fill="#FFFFFF" />
<rect x="117" y="11" width="2" height="1" fill="#FFCDE6" />
<rect x="120" y="11" width="2" height="1" fill="#FFCBE5" opacity="0.831373" />
<rect x="122" y="11" width="4" height="28" fill="#FFFFFF" />
<rect x="129" y="11" width="1" height="2" fill="#FFF3F9" />
<rect x="134" y="11" width="2" height="1" fill="#FFF3F9" />
<rect x="136" y="11" width="1" height="1" fill="#FFCBE5" />
<rect x="4" y="12" width="3" height="1" fill="#FFCBE5" />
<rect x="12" y="12" width="1" height="1" fill="#FFCBE5" />
<rect x="13" y="12" width="1" height="27" fill="#FFFFFF" />
<rect x="18" y="12" width="2" height="27" fill="#FFFFFF" />
<rect x="20" y="12" width="1" height="1" fill="#FFCBE5" opacity="0.968627" />
<rect x="21" y="12" width="2" height="26" fill="#FFFFFF" />
<rect x="27" y="12" width="2" height="13" fill="#FFFFFF" />
<rect x="29" y="12" width="1" height="1" fill="#FFCBE5" />
<rect x="30" y="12" width="2" height="13" fill="#FFFFFF" />
<rect x="36" y="12" width="2" height="27" fill="#FFFFFF" />
<rect x="38" y="12" width="1" height="1" fill="#FFCBE5" />
<rect x="39" y="12" width="2" height="11" fill="#FFFFFF" />
<rect x="45" y="12" width="2" height="11" fill="#FFFFFF" />
<rect x="47" y="12" width="1" height="1" fill="#FFCBE5" opacity="0.996078" />
<rect x="48" y="12" width="2" height="26" fill="#FFFFFF" />
<rect x="54" y="12" width="2" height="13" fill="#FFFFFF" />
<rect x="56" y="12" width="1" height="1" fill="#FFCBE5" />
<rect x="57" y="12" width="2" height="1" fill="#FFFFFF" />
<rect x="59" y="12" width="1" height="1" fill="#FFCBE5" />
<rect x="66" y="12" width="2" height="1" fill="#FFCBE5" />
<rect x="68" y="12" width="4" height="27" fill="#FFFFFF" />
<rect x="72" y="12" width="2" height="1" fill="#FFCBE5" />
<rect x="80" y="12" width="1" height="1" fill="#FFCBE5" />
<rect x="81" y="12" width="2" height="1" fill="#FFFFFF" />
<rect x="83" y="12" width="1" height="1" fill="#FFCBE5" />
<rect x="84" y="12" width="2" height="26" fill="#FFFFFF" />
<rect x="90" y="12" width="2" height="12" fill="#FFFFFF" />
<rect x="92" y="12" width="1" height="1" fill="#FFCBE5" />
<rect x="93" y="12" width="2" height="11" fill="#FFFFFF" />
<rect x="99" y="12" width="2" height="27" fill="#FFFFFF" />
<rect x="101" y="12" width="1" height="1" fill="#FFCBE5" />
<rect x="102" y="12" width="2" height="26" fill="#FFFFFF" />
<rect x="108" y="12" width="2" height="13" fill="#FFFFFF" />
<rect x="110" y="12" width="1" height="1" fill="#FFCBE5" />
<rect x="111" y="12" width="2" height="13" fill="#FFFFFF" />
<rect x="117" y="12" width="2" height="27" fill="#FFFFFF" />
<rect x="119" y="12" width="1" height="1" fill="#FFCBE5" />
<rect x="120" y="12" width="2" height="26" fill="#FFFFFF" />
<rect x="126" y="12" width="1" height="28" fill="#FFFFFF" />
<rect x="127" y="12" width="1" height="1" fill="#FFCBE5" />
<rect x="133" y="12" width="3" height="1" fill="#FFCBE5" />
<rect x="8" y="13" width="4" height="1" fill="#FFCBE5" />
<rect x="12" y="13" width="1" height="7" fill="#FFFFFF" />
<rect x="20" y="13" width="1" height="26" fill="#FFFFFF" />
<rect x="29" y="13" width="1" height="11" fill="#FFFFFF" />
<rect x="38" y="13" width="1" height="26" fill="#FFFFFF" />
<rect x="47" y="13" width="1" height="26" fill="#FFFFFF" />
<rect x="56" y="13" width="2" height="1" fill="#FFFFFF" />
<rect x="58" y="13" width="1" height="1" fill="#FFCBE5" />
<rect x="59" y="13" width="2" height="2" fill="#FFF3F9" />
<rect x="61" y="13" width="5" height="1" fill="#FFCBE5" />
<rect x="66" y="13" width="1" height="2" fill="#FFF3F9" />
<rect x="67" y="13" width="1" height="2" fill="#FFCBE5" />
<rect x="72" y="13" width="1" height="2" fill="#FFCBE5" />
<rect x="73" y="13" width="1" height="2" fill="#FFF3F9" />
<rect x="74" y="13" width="5" height="1" fill="#FFCBE5" />
<rect x="79" y="13" width="2" height="2" fill="#FFF3F9" />
<rect x="81" y="13" width="1" height="1" fill="#FFCBE5" />
<rect x="82" y="13" width="2" height="1" fill="#FFFFFF" />
<rect x="92" y="13" width="1" height="11" fill="#FFFFFF" />
<rect x="101" y="13" width="1" height="26" fill="#FFFFFF" />
<rect x="110" y="13" width="1" height="11" fill="#FFFFFF" />
<rect x="119" y="13" width="1" height="26" fill="#FFFFFF" />
<rect x="127" y="13" width="1" height="26" fill="#FFFFFF" />
<rect x="128" y="13" width="4" height="1" fill="#FFCBE5" />
<rect x="10" y="14" width="1" height="4" fill="#FFCBE5" opacity="0.968627" />
<rect x="11" y="14" width="1" height="4" fill="#FFFFFF" />
<rect x="56" y="14" width="1" height="9" fill="#FFFFFF" />
<rect x="57" y="14" width="1" height="1" fill="#FFCBE5" />
<rect x="58" y="14" width="1" height="1" fill="#FFF3F9" />
<rect x="61" y="14" width="5" height="1" fill="#FFF3F9" />
<rect x="74" y="14" width="5" height="1" fill="#FFF3F9" />
<rect x="81" y="14" width="1" height="1" fill="#FFF3F9" />
<rect x="82" y="14" width="1" height="1" fill="#FFCBE5" />
<rect x="83" y="14" width="1" height="25" fill="#FFFFFF" />
<rect x="128" y="14" width="1" height="7" fill="#FFFFFF" />
<rect x="129" y="14" width="1" height="1" fill="#FFD4E9" />
<rect x="57" y="15" width="1" height="8" fill="#FFFFFF" />
<rect x="58" y="15" width="4" height="1" fill="#FFCBE5" />
<rect x="62" y="15" width="4" height="1" fill="#FFF3F9" />
<rect x="66" y="15" width="1" height="1" fill="#FFCBE5" />
<rect x="67" y="15" width="1" height="24" fill="#FFFFFF" />
<rect x="72" y="15" width="1" height="25" fill="#FFFFFF" />
<rect x="73" y="15" width="1" height="1" fill="#FFCBE5" />
<rect x="74" y="15" width="4" height="1" fill="#FFF3F9" />
<rect x="78" y="15" width="4" height="1" fill="#FFCBE5" />
<rect x="82" y="15" width="1" height="24" fill="#FFFFFF" />
<rect x="129" y="15" width="1" height="4" fill="#FFFFFF" />
<rect x="130" y="15" width="1" height="3" fill="#FFD4E9" />
<rect x="58" y="16" width="3" height="7" fill="#FFFFFF" />
<rect x="61" y="16" width="1" height="2" fill="#FFCBE5" />
<rect x="62" y="16" width="3" height="1" fill="#FFF3F9" />
<rect x="65" y="16" width="1" height="1" fill="#FFCBE5" />
<rect x="66" y="16" width="1" height="22" fill="#FFFFFF" />
<rect x="73" y="16" width="1" height="11" fill="#FFFFFF" />
<rect x="74" y="16" width="1" height="1" fill="#FFCBE5" />
<rect x="75" y="16" width="3" height="1" fill="#FFF3F9" />
<rect x="78" y="16" width="1" height="2" fill="#FFCBE5" />
<rect x="79" y="16" width="3" height="7" fill="#FFFFFF" />
<rect x="62" y="17" width="2" height="1" fill="#FFF3F9" />
<rect x="64" y="17" width="1" height="1" fill="#FFCBE5" />
<rect x="65" y="17" width="1" height="22" fill="#FFFFFF" />
<rect x="74" y="17" width="1" height="9" fill="#FFFFFF" />
<rect x="75" y="17" width="1" height="1" fill="#FFCBE5" />
<rect x="76" y="17" width="2" height="1" fill="#FFF3F9" />
<rect x="11" y="18" width="1" height="2" fill="#FFCDE6" />
<rect x="61" y="18" width="1" height="5" fill="#FFFFFF" />
<rect x="62" y="18" width="2" height="1" fill="#FFCBE5" />
<rect x="64" y="18" width="1" height="21" fill="#FFFFFF" />
<rect x="75" y="18" width="1" height="5" fill="#FFFFFF" />
<rect x="76" y="18" width="2" height="1" fill="#FFCBE5" />
<rect x="78" y="18" width="1" height="9" fill="#FFFFFF" />
<rect x="130" y="18" width="1" height="1" fill="#FFCBE5" opacity="0.831373" />
<rect x="62" y="19" width="2" height="4" fill="#FFFFFF" />
<rect x="76" y="19" width="2" height="6" fill="#FFFFFF" />
<rect x="129" y="19" width="1" height="1" fill="#FFD4E9" />
<rect x="12" y="20" width="1" height="1" fill="#FFCBE5" />
<rect x="129" y="20" width="1" height="1" fill="#FFCBE5" opacity="0.831373" />
<rect x="11" y="21" width="1" height="1" fill="#FFCBE5" opacity="0.831373" />
<rect x="12" y="21" width="1" height="8" fill="#FFFFFF" />
<rect x="128" y="21" width="1" height="1" fill="#FFCBE5" opacity="0.968627" />
<rect x="11" y="22" width="1" height="1" fill="#FFD4E9" />
<rect x="128" y="22" width="1" height="8" fill="#FFFFFF" />
<rect x="129" y="22" width="1" height="1" fill="#FFCBE5" opacity="0.831373" />
<rect x="10" y="23" width="1" height="4" fill="#FFCBE5" opacity="0.831373" />
<rect x="11" y="23" width="1" height="4" fill="#FFFFFF" />
<rect x="39" y="23" width="6" height="1" fill="#FFCDE6" />
<rect x="45" y="23" width="1" height="9" fill="#FFFFFF" />
<rect x="46" y="23" width="1" height="7" fill="#FFCDE6" />
<rect x="56" y="23" width="3" height="1" fill="#FFCDE6" />
<rect x="59" y="23" width="2" height="2" fill="#FFFFFF" />
<rect x="61" y="23" width="1" height="6" fill="#FFCDE6" />
<rect x="62" y="23" width="1" height="3" fill="#FFFFFF" />
<rect x="63" y="23" width="1" height="6" fill="#FFCDE6" />
<rect x="75" y="23" width="1" height="3" fill="#FFCDE6" />
<rect x="79" y="23" width="1" height="6" fill="#FFFFFF" />
<rect x="80" y="23" width="1" height="6" fill="#FFCDE6" />
<rect x="81" y="23" width="1" height="3" fill="#FFFFFF" />
<rect x="93" y="23" width="1" height="2" fill="#FFCDE6" />
<rect x="94" y="23" width="3" height="1" fill="#FFFFFF" />
<rect x="97" y="23" width="1" height="6" fill="#FFCDE6" />
<rect x="98" y="23" width="1" height="3" fill="#FFFFFF" />
<rect x="129" y="23" width="1" height="1" fill="#FFD4E9" />
<rect x="29" y="24" width="1" height="1" fill="#FFDFEF" />
<rect x="39" y="24" width="2" height="3" fill="#FFFFFF" />
<rect x="41" y="24" width="1" height="3" fill="#FFCDE6" />
<rect x="42" y="24" width="3" height="2" fill="#FFFFFF" />
<rect x="56" y="24" width="3" height="1" fill="#FFFFFF" />
<rect x="90" y="24" width="3" height="1" fill="#FFCDE6" />
<rect x="94" y="24" width="2" height="1" fill="#FFCDE6" />
<rect x="96" y="24" width="1" height="6" fill="#FFFFFF" />
<rect x="110" y="24" width="1" height="1" fill="#FFDFEF" />
<rect x="129" y="24" width="1" height="4" fill="#FFFFFF" />
<rect x="130" y="24" width="1" height="1" fill="#FFCBE5" opacity="0.831373" />
<rect x="27" y="25" width="1" height="1" fill="#FFFFFF" />
<rect x="28" y="25" width="1" height="2" fill="#FFDFEF" />
<rect x="29" y="25" width="1" height="4" fill="#FFF3F9" />
<rect x="30" y="25" width="1" height="2" fill="#FFDFEF" />
<rect x="31" y="25" width="1" height="1" fill="#FFFFFF" />
<rect x="54" y="25" width="1" height="15" fill="#FFFFFF" />
<rect x="55" y="25" width="5" height="1" fill="#FFCDE6" />
<rect x="60" y="25" width="1" height="5" fill="#FFFFFF" />
<rect x="76" y="25" width="1" height="1" fill="#FFCDE6" />
<rect x="77" y="25" width="1" height="1" fill="#FFFFFF" />
<rect x="90" y="25" width="1" height="3" fill="#FFFFFF" />
<rect x="91" y="25" width="1" height="1" fill="#FFCDE6" />
<rect x="92" y="25" width="2" height="1" fill="#FFFFFF" />
<rect x="94" y="25" width="1" height="1" fill="#FFCDE6" />
<rect x="95" y="25" width="1" height="3" fill="#FFFFFF" />
<rect x="108" y="25" width="1" height="1" fill="#FFFFFF" />
<rect x="109" y="25" width="1" height="2" fill="#FFDFEF" />
<rect x="110" y="25" width="1" height="4" fill="#FFF3F9" />
<rect x="111" y="25" width="1" height="2" fill="#FFDFEF" />
<rect x="112" y="25" width="1" height="1" fill="#FFFFFF" />
<rect x="130" y="25" width="1" height="3" fill="#FFD4E9" />
<rect x="23" y="26" width="3" height="13" fill="#FFFFFF" />
<rect x="26" y="26" width="2" height="1" fill="#FFDFEF" />
<rect x="31" y="26" width="2" height="1" fill="#FFDFEF" />
<rect x="33" y="26" width="3" height="14" fill="#FFFFFF" />
<rect x="42" y="26" width="1" height="1" fill="#FFCDE6" />
<rect x="43" y="26" width="2" height="1" fill="#FFFFFF" />
<rect x="55" y="26" width="1" height="1" fill="#FFFFFF" />
<rect x="56" y="26" width="1" height="1" fill="#FFCDE6" />
<rect x="57" y="26" width="1" height="2" fill="#FFFFFF" />
<rect x="58" y="26" width="1" height="1" fill="#FFCDE6" />
<rect x="59" y="26" width="1" height="1" fill="#FFFFFF" />
<rect x="62" y="26" width="1" height="1" fill="#FFCDE6" />
<rect x="74" y="26" width="1" height="1" fill="#FFCDE6" />
<rect x="75" y="26" width="2" height="3" fill="#FFFFFF" />
<rect x="77" y="26" width="1" height="1" fill="#FFCDE6" />
<rect x="81" y="26" width="1" height="1" fill="#FFCDE6" />
<rect x="91" y="26" width="1" height="2" fill="#FFFFFF" />
<rect x="92" y="26" width="2" height="1" fill="#FFCDE6" />
<rect x="94" y="26" width="1" height="2" fill="#FFFFFF" />
<rect x="98" y="26" width="1" height="1" fill="#FFCDE6" />
<rect x="104" y="26" width="3" height="13" fill="#FFFFFF" />
<rect x="107" y="26" width="2" height="1" fill="#FFDFEF" />
<rect x="112" y="26" width="2" height="1" fill="#FFDFEF" />
<rect x="114" y="26" width="3" height="14" fill="#FFFFFF" />
<rect x="11" y="27" width="1" height="2" fill="#FFCBE5" opacity="0.831373" />
<rect x="26" y="27" width="1" height="1" fill="#FFDFEF" />
<rect x="27" y="27" width="2" height="1" fill="#FFF3F9" />
<rect x="30" y="27" width="2" height="1" fill="#FFF3F9" />
<rect x="32" y="27" width="1" height="1" fill="#FFDFEF" />
<rect x="39" y="27" width="1" height="1" fill="#FFFFFF" />
<rect x="40" y="27" width="1" height="1" fill="#FFCDE6" />
<rect x="41" y="27" width="2" height="5" fill="#FFFFFF" />
<rect x="43" y="27" width="1" height="1" fill="#FFCDE6" />
<rect x="44" y="27" width="1" height="1" fill="#FFFFFF" />
<rect x="55" y="27" width="1" height="1" fill="#FFCDE6" />
<rect x="56" y="27" width="1" height="1" fill="#FFFFFF" />
<rect x="58" y="27" width="1" height="1" fill="#FFFFFF" />
<rect x="59" y="27" width="1" height="1" fill="#FFCDE6" />
<rect x="62" y="27" width="1" height="3" fill="#FFFFFF" />
<rect x="73" y="27" width="1" height="1" fill="#FFCDE6" />
<rect x="74" y="27" width="1" height="3" fill="#FFFFFF" />
<rect x="77" y="27" width="1" height="2" fill="#FFFFFF" />
<rect x="78" y="27" width="1" height="1" fill="#FFCDE6" />
<rect x="81" y="27" width="1" height="13" fill="#FFFFFF" />
<rect x="92" y="27" width="1" height="1" fill="#FFFFFF" />
<rect x="93" y="27" width="1" height="2" fill="#FFCDE6" />
<rect x="98" y="27" width="1" height="13" fill="#FFFFFF" />
<rect x="107" y="27" width="1" height="1" fill="#FFDFEF" />
<rect x="108" y="27" width="2" height="1" fill="#FFF3F9" />
<rect x="111" y="27" width="2" height="1" fill="#FFF3F9" />
<rect x="113" y="27" width="1" height="1" fill="#FFDFEF" />
<rect x="26" y="28" width="1" height="12" fill="#FFFFFF" />
<rect x="27" y="28" width="1" height="3" fill="#FFDFEF" />
<rect x="28" y="28" width="1" height="2" fill="#FFF3F9" />
<rect x="30" y="28" width="1" height="2" fill="#FFF3F9" />
<rect x="31" y="28" width="1" height="3" fill="#FFDFEF" />
<rect x="32" y="28" width="1" height="11" fill="#FFFFFF" />
<rect x="39" y="28" width="1" height="1" fill="#FFCDE6" />
<rect x="40" y="28" width="1" height="2" fill="#FFFFFF" />
<rect x="43" y="28" width="1" height="4" fill="#FFFFFF" />
<rect x="44" y="28" width="1" height="1" fill="#FFCDE6" />
<rect x="55" y="28" width="1" height="11" fill="#FFFFFF" />
<rect x="56" y="28" width="3" height="1" fill="#FFCDE6" />
<rect x="59" y="28" width="1" height="2" fill="#FFFFFF" />
<rect x="73" y="28" width="1" height="11" fill="#FFFFFF" />
<rect x="78" y="28" width="1" height="1" fill="#FFFFFF" />
<rect x="90" y="28" width="3" height="1" fill="#FFCDE6" />
<rect x="94" y="28" width="2" height="1" fill="#FFCDE6" />
<rect x="107" y="28" width="1" height="12" fill="#FFFFFF" />
<rect x="108" y="28" width="1" height="3" fill="#FFDFEF" />
<rect x="109" y="28" width="1" height="2" fill="#FFF3F9" />
<rect x="111" y="28" width="1" height="2" fill="#FFF3F9" />
<rect x="112" y="28" width="1" height="3" fill="#FFDFEF" />
<rect x="113" y="28" width="1" height="11" fill="#FFFFFF" />
<rect x="129" y="28" width="1" height="1" fill="#FFD4E9" />
<rect x="12" y="29" width="1" height="1" fill="#FFCDE6" />
<rect x="29" y="29" width="1" height="1" fill="#FFDFEF" />
<rect x="39" y="29" width="1" height="9" fill="#FFFFFF" />
<rect x="44" y="29" width="1" height="3" fill="#FFFFFF" />
<rect x="56" y="29" width="3" height="1" fill="#FFFFFF" />
<rect x="61" y="29" width="1" height="1" fill="#FFFFFF" />
<rect x="63" y="29" width="1" height="2" fill="#FFFFFF" />
<rect x="75" y="29" width="5" height="1" fill="#FFCDE6" />
<rect x="80" y="29" width="1" height="1" fill="#FFFFFF" />
<rect x="90" y="29" width="6" height="1" fill="#FFFFFF" />
<rect x="97" y="29" width="1" height="2" fill="#FFFFFF" />
<rect x="110" y="29" width="1" height="1" fill="#FFDFEF" />
<rect x="129" y="29" width="1" height="1" fill="#FFCBE5" opacity="0.831373" />
<rect x="11" y="30" width="1" height="2" fill="#FFD4E9" />
<rect x="12" y="30" width="1" height="8" fill="#FFFFFF" />
<rect x="28" y="30" width="1" height="1" fill="#FFDFEF" />
<rect x="29" y="30" width="1" height="9" fill="#FFFFFF" />
<rect x="30" y="30" width="1" height="1" fill="#FFDFEF" />
<rect x="40" y="30" width="1" height="2" fill="#FFCDE6" />
<rect x="46" y="30" width="1" height="2" fill="#FFFFFF" />
<rect x="56" y="30" width="2" height="1" fill="#FFFFFF" />
<rect x="58" y="30" width="5" height="1" fill="#FFCDE6" />
<rect x="74" y="30" width="1" height="2" fill="#FFCDE6" />
<rect x="75" y="30" width="5" height="2" fill="#FFFFFF" />
<rect x="80" y="30" width="1" height="2" fill="#FFCDE6" />
<rect x="90" y="30" width="2" height="1" fill="#FFFFFF" />
<rect x="92" y="30" width="5" height="1" fill="#FFCDE6" />
<rect x="109" y="30" width="1" height="1" fill="#FFDFEF" />
<rect x="110" y="30" width="1" height="9" fill="#FFFFFF" />
<rect x="111" y="30" width="1" height="1" fill="#FFDFEF" />
<rect x="128" y="30" width="1" height="1" fill="#FFCBE5" />
<rect x="27" y="31" width="2" height="8" fill="#FFFFFF" />
<rect x="30" y="31" width="2" height="7" fill="#FFFFFF" />
<rect x="56" y="31" width="1" height="8" fill="#FFFFFF" />
<rect x="57" y="31" width="1" height="1" fill="#FFCDE6" />
<rect x="58" y="31" width="5" height="1" fill="#FFFFFF" />
<rect x="63" y="31" width="1" height="1" fill="#FFCDE6" />
<rect x="90" y="31" width="1" height="9" fill="#FFFFFF" />
<rect x="91" y="31" width="1" height="1" fill="#FFCDE6" />
<rect x="92" y="31" width="5" height="1" fill="#FFFFFF" />
<rect x="97" y="31" width="1" height="1" fill="#FFCDE6" />
<rect x="108" y="31" width="2" height="8" fill="#FFFFFF" />
<rect x="111" y="31" width="2" height="7" fill="#FFFFFF" />
<rect x="128" y="31" width="1" height="8" fill="#FFFFFF" />
<rect x="129" y="31" width="1" height="2" fill="#FFCDE6" />
<rect x="10" y="32" width="1" height="4" fill="#FFCBE5" opacity="0.831373" />
<rect x="11" y="32" width="1" height="4" fill="#FFFFFF" />
<rect x="40" y="32" width="1" height="7" fill="#FFFFFF" />
<rect x="41" y="32" width="6" height="1" fill="#FFCDE6" />
<rect x="57" y="32" width="1" height="6" fill="#FFFFFF" />
<rect x="58" y="32" width="5" height="1" fill="#FFCDE6" />
<rect x="63" y="32" width="1" height="8" fill="#FFFFFF" />
<rect x="74" y="32" width="1" height="7" fill="#FFFFFF" />
<rect x="75" y="32" width="5" height="1" fill="#FFCDE6" />
<rect x="80" y="32" width="1" height="8" fill="#FFFFFF" />
<rect x="91" y="32" width="1" height="7" fill="#FFFFFF" />
<rect x="92" y="32" width="5" height="1" fill="#FFCDE6" />
<rect x="97" y="32" width="1" height="8" fill="#FFFFFF" />
<rect x="41" y="33" width="6" height="6" fill="#FFFFFF" />
<rect x="58" y="33" width="5" height="6" fill="#FFFFFF" />
<rect x="75" y="33" width="5" height="5" fill="#FFFFFF" />
<rect x="92" y="33" width="5" height="5" fill="#FFFFFF" />
<rect x="129" y="33" width="1" height="4" fill="#FFFFFF" />
<rect x="130" y="33" width="1" height="4" fill="#FFCBE5" opacity="0.968627" />
<rect x="11" y="36" width="1" height="1" fill="#FFD4E9" />
<rect x="11" y="37" width="1" height="1" fill="#FFCBE5" opacity="0.831373" />
<rect x="129" y="37" width="1" height="1" fill="#FFCDE6" />
<rect x="12" y="38" width="1" height="1" fill="#FFCBE5" opacity="0.992157" />
<rect x="21" y="38" width="1" height="1" fill="#FFCBE5" />
<rect x="22" y="38" width="1" height="1" fill="#FFFFFF" />
<rect x="30" y="38" width="1" height="1" fill="#FFCBE5" />
<rect x="31" y="38" width="1" height="1" fill="#FFFFFF" />
<rect x="39" y="38" width="1" height="1" fill="#FFCBE5" />
<rect x="48" y="38" width="1" height="1" fill="#FFCBE5" />
<rect x="49" y="38" width="1" height="1" fill="#FFFFFF" />
<rect x="57" y="38" width="1" height="1" fill="#FFCBE5" />
<rect x="66" y="38" width="1" height="1" fill="#FFCBE5" />
<rect x="75" y="38" width="1" height="1" fill="#FFCBE5" />
<rect x="76" y="38" width="4" height="1" fill="#FFFFFF" />
<rect x="84" y="38" width="1" height="1" fill="#FFCBE5" />
<rect x="85" y="38" width="1" height="1" fill="#FFFFFF" />
<rect x="92" y="38" width="1" height="1" fill="#FFFFFF" />
<rect x="93" y="38" width="1" height="1" fill="#FFCBE5" opacity="0.996078" />
<rect x="94" y="38" width="3" height="1" fill="#FFFFFF" />
<rect x="102" y="38" width="1" height="1" fill="#FFCBE5" />
<rect x="103" y="38" width="1" height="1" fill="#FFFFFF" />
<rect x="111" y="38" width="1" height="1" fill="#FFCBE5" />
<rect x="112" y="38" width="1" height="1" fill="#FFFFFF" />
<rect x="120" y="38" width="1" height="1" fill="#FFCBE5" opacity="0.968627" />
<rect x="121" y="38" width="1" height="1" fill="#FFFFFF" />
<rect x="129" y="38" width="1" height="1" fill="#FFCBE5" />
<rect x="13" y="39" width="2" height="1" fill="#FFCBE5" opacity="0.831373" />
<rect x="15" y="39" width="4" height="1" fill="#FFFFFF" />
<rect x="19" y="39" width="2" height="1" fill="#FFCBE5" opacity="0.831373" />
<rect x="22" y="39" width="2" height="1" fill="#FFCDE6" />
<rect x="24" y="39" width="2" height="1" fill="#FFFFFF" />
<rect x="27" y="39" width="1" height="1" fill="#FFFFFF" />
<rect x="28" y="39" width="2" height="1" fill="#FFCDE6" />
<rect x="31" y="39" width="2" height="1" fill="#FFCDE6" />
<rect x="36" y="39" width="1" height="1" fill="#FFFFFF" />
<rect x="37" y="39" width="2" height="1" fill="#FFCBE5" opacity="0.968627" />
<rect x="40" y="39" width="1" height="1" fill="#FFCBE5" opacity="0.968627" />
<rect x="41" y="39" width="1" height="1" fill="#FFCDE6" />
<rect x="42" y="39" width="4" height="1" fill="#FFFFFF" />
<rect x="46" y="39" width="1" height="1" fill="#FFCDE6" />
<rect x="47" y="39" width="1" height="1" fill="#FFCBE5" opacity="0.968627" />
<rect x="49" y="39" width="1" height="1" fill="#FFCBE5" opacity="0.968627" />
<rect x="50" y="39" width="1" height="1" fill="#FFCDE6" />
<rect x="51" y="39" width="3" height="1" fill="#FFFFFF" />
<rect x="55" y="39" width="2" height="1" fill="#FFCDE6" />
<rect x="58" y="39" width="1" height="1" fill="#FFCBE5" opacity="0.968627" />
<rect x="59" y="39" width="1" height="1" fill="#FFCDE6" />
<rect x="60" y="39" width="3" height="1" fill="#FFFFFF" />
<rect x="64" y="39" width="1" height="1" fill="#FFCDE6" />
<rect x="65" y="39" width="1" height="1" fill="#FFCBE5" opacity="0.968627" />
<rect x="67" y="39" width="1" height="1" fill="#FFCBE5" opacity="0.968627" />
<rect x="68" y="39" width="1" height="1" fill="#FFCDE6" />
<rect x="69" y="39" width="3" height="1" fill="#FFFFFF" />
<rect x="73" y="39" width="2" height="1" fill="#FFCDE6" />
<rect x="76" y="39" width="2" height="1" fill="#FFCDE6" />
<rect x="78" y="39" width="2" height="1" fill="#FFFFFF" />
<rect x="82" y="39" width="1" height="1" fill="#FFCDE6" />
<rect x="83" y="39" width="1" height="1" fill="#FFCBE5" opacity="0.968627" />
<rect x="85" y="39" width="1" height="1" fill="#FFCBE5" opacity="0.968627" />
<rect x="86" y="39" width="1" height="1" fill="#FFCDE6" />
<rect x="87" y="39" width="3" height="1" fill="#FFFFFF" />
<rect x="91" y="39" width="2" height="1" fill="#FFCBE5" opacity="0.968627" />
<rect x="94" y="39" width="2" height="1" fill="#FFCBE5" opacity="0.968627" />
<rect x="96" y="39" width="1" height="1" fill="#FFFFFF" />
<rect x="99" y="39" width="1" height="1" fill="#FFFFFF" />
<rect x="100" y="39" width="2" height="1" fill="#FFCBE5" opacity="0.968627" />
<rect x="103" y="39" width="1" height="1" fill="#FFCBE5" opacity="0.968627" />
<rect x="104" y="39" width="1" height="1" fill="#FFCDE6" />
<rect x="105" y="39" width="2" height="1" fill="#FFFFFF" />
<rect x="108" y="39" width="1" height="1" fill="#FFFFFF" />
<rect x="109" y="39" width="1" height="1" fill="#FFCDE6" />
<rect x="110" y="39" width="1" height="1" fill="#FFCBE5" opacity="0.968627" />
<rect x="112" y="39" width="2" height="1" fill="#FFD4E9" />
<rect x="117" y="39" width="1" height="1" fill="#FFFFFF" />
<rect x="118" y="39" width="1" height="1" fill="#FFD4E9" />
<rect x="119" y="39" width="1" height="1" fill="#FFCBE5" opacity="0.831373" />
<rect x="121" y="39" width="2" height="1" fill="#FFCBE5" opacity="0.831373" />
<rect x="123" y="39" width="3" height="1" fill="#FFFFFF" />
<rect x="127" y="39" width="1" height="1" fill="#FFD4E9" />
<rect x="128" y="39" width="1" height="1" fill="#FFCBE5" />
<rect x="15" y="40" width="4" height="1" fill="#FFCBE5" opacity="0.831373" />
<rect x="24" y="40" width="4" height="1" fill="#FFCBE5" opacity="0.968627" />
<rect x="33" y="40" width="4" height="1" fill="#FFCBE5" opacity="0.968627" />
<rect x="42" y="40" width="4" height="1" fill="#FFCBE5" opacity="0.968627" />
<rect x="51" y="40" width="4" height="1" fill="#FFCBE5" opacity="0.968627" />
<rect x="60" y="40" width="4" height="1" fill="#FFCBE5" opacity="0.968627" />
<rect x="69" y="40" width="1" height="1" fill="#FFCBE5" opacity="0.968627" />
<rect x="70" y="40" width="2" height="1" fill="#FFCDE6" />
<rect x="72" y="40" width="1" height="1" fill="#FFCBE5" opacity="0.968627" />
<rect x="78" y="40" width="1" height="1" fill="#FFCBE5" opacity="0.968627" />
<rect x="79" y="40" width="2" height="1" fill="#FFCDE6" />
<rect x="81" y="40" width="1" height="1" fill="#FFCBE5" opacity="0.968627" />
<rect x="87" y="40" width="4" height="1" fill="#FFCBE5" opacity="0.968627" />
<rect x="96" y="40" width="4" height="1" fill="#FFCBE5" opacity="0.968627" />
<rect x="105" y="40" width="4" height="1" fill="#FFCBE5" opacity="0.968627" />
<rect x="114" y="40" width="4" height="1" fill="#FFCBE5" opacity="0.831373" />
<rect x="123" y="40" width="4" height="1" fill="#FFCBE5" opacity="0.831373" />
</svg>